<svg xmlns="http://www.w3.org/2000/svg" width="32" height="32" viewBox="0 3.7 31.4 32" fill="none"><path d="M15.6848 4C10.834 4 6.49972 6.20849 3.6216 9.67554C4.145 12.283 4.89189 14.6103 5.84633 16.5982C5.5259 17.4361 5.28872 18.2911 5.16557 19.0948L4.41411 23.1871C2.97163 21.4301 1.56449 19.1085 0.435595 16.0484C0.153941 17.2269 0 18.4569 0 19.7235C0 23.6843 1.46415 27.3 3.87474 30.064L5.01049 23.8809L5.86799 19.2125C5.96606 18.5746 6.14052 17.9036 6.37201 17.2372C6.40279 17.148 6.43244 17.06 6.46551 16.9708C6.5077 16.8565 6.55331 16.7434 6.59893 16.6302C6.62971 16.5525 6.66164 16.4747 6.69471 16.397C6.74374 16.2816 6.79506 16.1661 6.84751 16.0518C6.88514 15.9695 6.92505 15.886 6.96496 15.8037C7.01742 15.6963 7.06987 15.59 7.1246 15.4848C7.18276 15.3728 7.24548 15.2608 7.30933 15.1487C7.35266 15.0722 7.39372 14.9944 7.43705 14.9201C8.9297 12.395 11.5456 10.0676 15.7373 10.0676C15.743 10.0676 15.7476 10.0676 15.7533 10.0676C19.6805 10.0733 23.1265 12.4441 24.5313 16.1078C25.9635 19.8412 24.9532 23.8844 21.8938 26.661C19.0373 29.2524 14.5263 29.7417 10.4018 27.9058C10.2365 27.8327 10.0597 27.7481 9.87615 27.6566L10.7884 22.691C11.2833 23.0225 11.7964 23.3117 12.3312 23.5494C14.7384 24.6217 17.2402 24.4548 18.7032 23.1276C20.2951 21.6827 20.8151 19.6983 20.0933 17.8202C19.5402 16.3799 18.108 14.839 15.7464 14.8355C15.7441 14.8355 15.7407 14.8355 15.7373 14.8355C11.5034 14.8355 10.6447 19.4491 10.5603 19.9761L10.5489 20.0447L10.1498 22.2314L9.21706 27.3057L8.0836 33.4773C10.3357 34.7313 12.9265 35.4469 15.686 35.4469C24.3489 35.4469 31.3708 28.4077 31.3708 19.7235C31.3697 11.0393 24.3477 4 15.6848 4Z" fill="#E83330"/></svg>